<svg preserveAspectRatio="xMidYMid meet" data-bbox="-0.005 -0.008 97.583 57.114" viewBox="-0.005 -0.008 97.583 57.114" xmlns="http://www.w3.org/2000/svg" data-type="color" role="presentation" aria-hidden="true" aria-label="">
    <g>
        <path d="M28.35 49.09L17.12 31.48c-.6-.93-1.1-1.59-.29-2.66a9.2 9.2 0 0 1 1.6-1.47 16.36 16.36 0 0 1 3.35-2 24.3 24.3 0 0 1 7.95-2c4.94-.48 10.68-.33 15.17 2a10.75 10.75 0 0 1 2.89 2.17 8.35 8.35 0 0 1 1.07 1.45c.31.53.67 1.11.27 1.8-.2.35-.74.65-1 .93a24.56 24.56 0 0 0-4.81 7l-2.48 4.92-1.41 2.73a8.88 8.88 0 0 1-1.27 2.22c-1.05 1.1-3.74.76-5.16.75a21.24 21.24 0 0 1-5.09-.56.75.75 0 0 0-.39 1.45 24.88 24.88 0 0 0 9.65.43 4.06 4.06 0 0 0 3-2.49c1-1.88 1.91-3.79 2.87-5.68 1.63-3.24 3.14-6.77 5.75-9.36 1-1 2.33-1.79 1.94-3.41a7.86 7.86 0 0 0-2.17-3.42c-4.07-4.12-10.75-4.7-16.22-4.57-5.93.14-12.38 1.58-16.59 6.07-1.42 1.52-1.14 2.61-.08 4.27l3.74 5.87 7.63 11.94c.52.82 1.81.06 1.29-.75z" fill="#1d1d1b" data-color="1"></path>
        <path d="M15.56 30.35a32.25 32.25 0 0 0-8.13 4.8c-.9.79-2.2 1.95-1.65 3.28a7.64 7.64 0 0 0 1.93 2.12l2.27 2.19 4.69 4.52 2.12 2.05a5 5 0 0 0 2.09 1.45 13.62 13.62 0 0 0 4.46 0 41.45 41.45 0 0 0 4.59-.6c.95-.19.55-1.63-.39-1.45a30.26 30.26 0 0 1-7.53.66c-1.72-.1-3.1-2.06-4.28-3.2l-3.93-3.79-3.79-3.65c-.34-.34-.92-.67-.75-1.25.06-.24.45-.55.61-.71a10.92 10.92 0 0 1 1.41-1.22 36 36 0 0 1 7.06-3.91c.88-.4.12-1.69-.75-1.3z" fill="#1d1d1b" data-color="1"></path>
        <path d="M6.43 38.94a29 29 0 0 0-6.27 14c-.15 1.07-.43 2.41.44 3.26a4.31 4.31 0 0 0 3.5.82c2.53-.35 4.73-2 6.8-3.41s4.28-3 6.46-4.37c.81-.52.06-1.82-.76-1.29-3.32 2.15-6.47 4.69-10 6.58a6.81 6.81 0 0 1-3.58 1c-.59 0-1.45-.16-1.56-.85a6.42 6.42 0 0 1 .14-1.63 26.48 26.48 0 0 1 1.92-6.51 27.31 27.31 0 0 1 3.93-6.62c.62-.74-.44-1.81-1.06-1.06z" fill="#1d1d1b" data-color="1"></path>
        <path d="M49.82 31.43a18.84 18.84 0 0 1 7.39 5.35 10.52 10.52 0 0 1 1.23 1.44c.35.56.14.73-.29 1.15l-1 1-3.72 3.53c-1.17 1.13-2.32 2.3-3.53 3.39a5.75 5.75 0 0 1-3.86 1.9 25.85 25.85 0 0 1-6.62-1.22.752.752 0 0 0-.4 1.45 36.86 36.86 0 0 0 6.33 1.22c2.55.26 4.44-1.15 6.2-2.83 2.41-2.31 4.79-4.64 7.19-7 .78-.75 1.86-1.53 1.35-2.75a10.93 10.93 0 0 0-2.31-2.86 19.92 19.92 0 0 0-7.6-5.25c-.92-.31-1.31 1.13-.4 1.45z" fill="#1d1d1b" data-color="1"></path>
        <path d="M58.43 40.97a16.29 16.29 0 0 1 4.65 5.64 23.72 23.72 0 0 1 2.55 6.92l.72-1a46.43 46.43 0 0 1-15.92-4.28c-.87-.42-1.63.87-.76 1.29a48.47 48.47 0 0 0 16.76 4.54.76.76 0 0 0 .72-.95c-1-5-3.65-10.46-7.88-13.45-.79-.56-1.54.74-.76 1.29z" fill="#1d1d1b" data-color="1"></path>
        <path d="M30.43 22.55c-.27-4.26-.52-8.52-.79-12.78a23.86 23.86 0 0 1-.13-5.66c.43-2.25 2.21-2.59 4.22-2.6 9.25 0 18.5.06 27.75.09h16.99c1.18 0 2.39 0 3.25.93 1.08 1.17 1.29 3 1.43 4.56a96 96 0 0 1 .41 12.69c-.16 3.93-.78 8-2.82 11.41-4 6.68-12.54 8.9-19.52 10.83a.752.752 0 0 0 .4 1.45c6.77-1.88 14.58-4 19.16-9.72a21.08 21.08 0 0 0 4.06-11 75.81 75.81 0 0 0-.05-14c-.22-2.94-.38-7.36-3.82-8.41A11.4 11.4 0 0 0 77.72.1H65.97L35.23.01c-2 0-4.5-.28-6 1.34-1.29 1.35-1.36 3.36-1.28 5.12.27 5.36.66 10.72 1 16.07.07 1 1.57 1 1.5 0z" fill="#1d1d1b" data-color="1"></path>
        <path d="M84.26 9.35c3.58-1.29 8.46 0 10.56 3.3a7.44 7.44 0 0 1 .87 6.92 7.09 7.09 0 0 1-4.45 4.27 14.59 14.59 0 0 1-7 .38c-.94-.18-1.34 1.27-.39 1.45a16.65 16.65 0 0 0 7.23-.23 8.58 8.58 0 0 0 5.55-4.39 9.25 9.25 0 0 0-5-12.72 11 11 0 0 0-7.83-.43c-.91.32-.52 1.77.39 1.45z" fill="#1d1d1b" data-color="1"></path>
    </g>
</svg>