<svg preserveAspectRatio="xMidYMid meet" data-bbox="0.005 0.016 78.258 44.596" viewBox="0.005 0.016 78.258 44.596" xmlns="http://www.w3.org/2000/svg" data-type="color" role="presentation" aria-hidden="true" aria-label="">
    <g>
        <path d="M22.91 36.47a21.44 21.44 0 0 1 29.57-.54c.71.65 1.77-.41 1.06-1.06a22.67 22.67 0 0 0-31.69.54.75.75 0 0 0 1.06 1.06z" fill="#1d1d1b" data-color="1"></path>
        <path d="M12.11 25.15c11.49-9.52 27.69-10.57 41.12-4.79a49.94 49.94 0 0 1 10.89 6.49c.76.59 1.83-.46 1.07-1.06-12.15-9.49-28.48-13.53-43.23-8a38 38 0 0 0-10.92 6.32c-.74.62.33 1.67 1.07 1.06z" fill="#1d1d1b" data-color="1"></path>
        <path d="M1.3 16.1A56.76 56.76 0 0 1 29.93 2.23a55.58 55.58 0 0 1 31.73 4.1 56.67 56.67 0 0 1 15.31 10.05c.7.66 1.77-.4 1.06-1.06A58.35 58.35 0 0 0 48.43.78 57.69 57.69 0 0 0 .24 15.04c-.71.65.35 1.71 1.06 1.06z" fill="#1d1d1b" data-color="1"></path>
        <path d="M33.82 44.4a7.81 7.81 0 0 1 4.52-1.91 4.06 4.06 0 0 1 3.55 1.73c.51.82 1.81.07 1.29-.75a5.53 5.53 0 0 0-4.71-2.48 9.36 9.36 0 0 0-5.71 2.35.75.75 0 0 0 0 1.06.77.77 0 0 0 1.06 0z" fill="#1d1d1b" data-color="1"></path>
    </g>
</svg>