<svg preserveAspectRatio="xMidYMid meet" data-bbox="-0.02 0.002 77.77 52.438" viewBox="-0.02 0.002 77.77 52.438" xmlns="http://www.w3.org/2000/svg" data-type="color" role="presentation" aria-hidden="true" aria-label=""><defs><style>#comp-lxt4ox6s4 svg [data-color="1"] {fill: #242323;}</style></defs>
    <g>
        <path d="M1.42 42.97a37.09 37.09 0 0 1 10.2-20.64c4.94-5.06 11.57-9.3 18.51-10.88a41.44 41.44 0 0 1 11.39-.81 37.33 37.33 0 0 1 10.54 1.84 34.59 34.59 0 0 1 17.36 14.41 50.54 50.54 0 0 1 5.1 11.17c.64 2 1 4.11 1.59 6.16a.752.752 0 0 0 1.45-.4c-.53-1.91-.89-3.86-1.47-5.76a51.35 51.35 0 0 0-4.14-9.79 36.43 36.43 0 0 0-6.84-9.21 39.22 39.22 0 0 0-10-6.95A32.19 32.19 0 0 0 44.64 9.4a47.65 47.65 0 0 0-12.11.11c-7.43 1.07-14.12 4.86-19.74 9.73A38.33 38.33 0 0 0 .05 42.58c-.13.94 1.31 1.35 1.45.39z" fill="#1d1d1b" data-color="1"></path>
        <path d="M.73 43.53c19.73.27 39.47-.14 59.19.44q8.46.25 16.91.8c1 .06 1-1.44 0-1.5-19.6-1.28-39.24-1.11-58.86-1.13q-8.62 0-17.24-.11a.75.75 0 0 0 0 1.5z" fill="#1d1d1b" data-color="1"></path>
        <path d="M.83 51.52c19.85.49 39.71.4 59.57.63q8.31.09 16.6.29a.75.75 0 0 0 0-1.5c-19.85-.49-39.72-.4-59.58-.63q-8.29-.09-16.59-.29a.75.75 0 0 0 0 1.5z" fill="#1d1d1b" data-color="1"></path>
        <path d="M39.92 9.82V1.97a.75.75 0 0 0-1.5 0v7.85a.75.75 0 0 0 1.5 0z" fill="#1d1d1b" data-color="1"></path>
        <path d="M31.32 1.93a71.65 71.65 0 0 0 15.21-.48c.95-.13.54-1.57-.4-1.44a69.86 69.86 0 0 1-14.81.42c-1-.07-1 1.43 0 1.5z" fill="#1d1d1b" data-color="1"></path>
    </g>
</svg>