<?xml version="1.0" encoding="UTF-8"?>
<svg preserveAspectRatio="xMidYMid meet" data-bbox="-0.006 -0.04 69.786 61.953" viewBox="-0.006 -0.04 69.786 61.953" xmlns="http://www.w3.org/2000/svg" data-type="color" role="presentation" aria-hidden="true" aria-label="">
    <g>
        <path d="M.14 58.91a7.48 7.48 0 0 0 5.81 3A7.12 7.12 0 0 0 9 61.32c1.31-.58 2.23-1.74 3.53-2.32 2.36-1.07 4.72 1.53 6.87 2.2 2.47.77 4.29-.65 6.29-1.88a3.92 3.92 0 0 1 3.38-.69 16.21 16.21 0 0 1 3.36 2.08 5.59 5.59 0 0 0 6.24 0 10 10 0 0 1 3.5-1.63c1.47-.18 2.88.57 4.18 1.14 2.25 1 4.33 1.48 6.53.1 1.09-.69 2.29-2 3.68-1.85a6.34 6.34 0 0 1 2.7 1.36 14.41 14.41 0 0 0 2.22 1.2c3.1 1.33 5.62.66 8.06-1.55.72-.65-.34-1.71-1.06-1.06a5.73 5.73 0 0 1-3.83 1.87 9.23 9.23 0 0 1-4.63-1.75 8.37 8.37 0 0 0-3.09-1.53 4.51 4.51 0 0 0-3.13.86 11 11 0 0 1-3 1.78 6.14 6.14 0 0 1-3.85-.79c-2.09-.93-4.14-1.79-6.39-.88s-4.22 3.12-6.82 1.73c-1.86-1-3.41-2.8-5.68-2.79s-3.78 1.83-5.74 2.67c-2.43 1-4.44-1-6.55-1.9a4.76 4.76 0 0 0-3.4-.28c-1.27.42-2.16 1.44-3.27 2.13a5.91 5.91 0 0 1-7.66-1.4c-.58-.76-1.88 0-1.3.75z" fill="currentColor"/>
        <path d="M68.36 48.49a6 6 0 0 1-6.68 1.9c-2.25-.84-3.53-3.18-6.2-2.78-2.19.32-3.78 2.16-5.92 2.59-2.42.47-4.22-1.95-6.35-2.67s-4 .43-5.79 1.66a6 6 0 0 1-3 1.39c-1.39 0-2.58-.88-3.72-1.53a6.58 6.58 0 0 0-6.16-.56c-1.1.43-2.14 1-3.27 1.36a4.17 4.17 0 0 1-3.84-.66 9.37 9.37 0 0 0-3.35-1.76 4.55 4.55 0 0 0-3.3.86 14.45 14.45 0 0 1-4.62 2.28 5.29 5.29 0 0 1-4.84-1.75c-.69-.67-1.75.39-1.06 1.06a6.78 6.78 0 0 0 7.3 1.85 17 17 0 0 0 3.65-1.94c1.54-1 2.61-1.17 4.18-.13a13.3 13.3 0 0 0 2.89 1.74 5.6 5.6 0 0 0 3.68-.17c1.12-.38 2.17-1 3.28-1.37a4.86 4.86 0 0 1 4.37.36c2.08 1.15 4 2.53 6.47 1.53 2.08-.84 4-3.44 6.42-2.82s3.89 3 6.49 2.89c2.41-.06 4.08-2 6.3-2.6 1.68-.44 2.78.65 4 1.59a7.19 7.19 0 0 0 3.72 1.45 7.49 7.49 0 0 0 6.61-3c.58-.76-.72-1.51-1.3-.75z" fill="currentColor"/>
        <path d="M.26 39.73a8.67 8.67 0 0 0 6.6 2.76 6.52 6.52 0 0 0 3.16-1.06c1.17-.79 2.26-2.13 3.81-2 2.3.14 4 2.28 6.32 2.65 2.45.4 4.12-1.34 6.12-2.39 2.71-1.43 4.48.84 6.71 2s4.12.64 6.15-.55a6.85 6.85 0 0 1 3.62-1.4 11.35 11.35 0 0 1 3.93 1.32c2.3 1 4.33 1.2 6.48-.24 1.17-.77 2.42-2 3.93-1.55s2.87 1.8 4.39 2.45c3.05 1.32 5.68.68 8.06-1.55.71-.66-.35-1.72-1.06-1.06a5.67 5.67 0 0 1-3.83 1.87 9.05 9.05 0 0 1-4.63-1.75c-2-1.27-3.71-2.16-5.94-.84a19.79 19.79 0 0 1-3 1.85c-1.36.5-2.76-.07-4-.62-2.07-.9-4.13-1.87-6.39-1s-4.19 3.11-6.7 1.93c-1.89-.88-3.32-2.67-5.49-2.89-2.36-.25-4 1.52-5.91 2.49-2.46 1.22-4.38-.61-6.53-1.61a5.26 5.26 0 0 0-3.06-.59 8 8 0 0 0-3.4 1.9c-2.72 2-6.07 1.08-8.32-1.18-.68-.69-1.74.37-1.06 1.06z" fill="currentColor"/>
        <path d="M8.93 15.71a9.84 9.84 0 0 1 8.49 3.86.77.77 0 0 0 1.3 0 9.75 9.75 0 0 1 8.4-4.28c1 0 1-1.47 0-1.5a11.3 11.3 0 0 0-9.7 5h1.3a11.39 11.39 0 0 0-9.79-4.6c-1 .06-1 1.56 0 1.5z" fill="currentColor"/>
        <path d="M27.77 1.67c5.71-1.31 9.19 5 12.12 8.71a.76.76 0 0 0 1.18-.16 18.2 18.2 0 0 1 14-8.16c1-.07 1-1.57 0-1.5a19.78 19.78 0 0 0-15.3 8.87l1.18-.15C37.58 5.01 33.82-1.3 27.37.18c-.94.21-.54 1.66.4 1.45z" fill="currentColor"/>
    </g>
</svg>