<svg preserveAspectRatio="xMidYMid meet" data-bbox="-0.018 0.014 69.729 68.877" viewBox="-0.018 0.014 69.729 68.877" xmlns="http://www.w3.org/2000/svg" data-type="color" role="presentation" aria-hidden="true" aria-label="">
    <g>
        <path d="M29.16 16.55c-1.74-5.83-8-9.22-13.92-8.68-6.78.62-12.2 5.84-15.15 11.68a.75.75 0 0 0 1.18.91c6.81-6.5 18.75-8.27 26.79-3.07l.38-1.39c-5.68.39-10.89 4.21-14 8.79-3.74 5.45-4.35 12.54-4.29 18.95a.75.75 0 0 0 1.39.38c5.7-9 10.2-18.9 17.46-26.84.65-.72-.41-1.78-1.06-1.07-7.35 8.05-11.92 18-17.69 27.15l1.4.38c-.06-5.95.45-12.4 3.68-17.57 2.76-4.42 7.81-8.3 13.14-8.67a.76.76 0 0 0 .37-1.4c-8.6-5.57-21.32-3.64-28.6 3.3l1.18.91c2.65-5.25 7.37-10.09 13.45-10.9 5.3-.7 11.28 2.21 12.87 7.53.28.93 1.73.53 1.45-.39z" fill="#1d1d1b" data-color="1"></path>
        <path d="M29.63 16.41c-.22-3.26 1.83-6 3.87-8.34a20.4 20.4 0 0 1 5.88-4.74 15.19 15.19 0 0 1 8-1.82 17 17 0 0 1 4.08.91c1.14.38 2.6.87 3 2.12l.72-1a47.51 47.51 0 0 0-14.65 3.69c-4.6 2-9.06 4.69-12.2 8.65-.59.75.46 1.81 1.06 1.06a29.19 29.19 0 0 1 11.56-8.26 45.4 45.4 0 0 1 14.26-3.59.76.76 0 0 0 .73-.95c-.89-2.59-4.35-3.46-6.75-3.9a16.22 16.22 0 0 0-9.65 1.34 21.1 21.1 0 0 0-7.24 5.57c-2.25 2.59-4.43 5.66-4.19 9.26.07 1 1.57 1 1.5 0z" fill="#1d1d1b" data-color="1"></path>
        <path d="M29.05 17.3c7.35-2.35 15.34-5.37 23.12-3.43 6.69 1.67 12.83 5.77 16.15 11.92l.85-1.1c-13-4.42-26.39-8.85-40.32-8.87a.75.75 0 0 0 0 1.5c13.79 0 27 4.44 39.92 8.81a.76.76 0 0 0 .85-1.1c-3.44-6.36-9.78-10.69-16.69-12.51-8.21-2.16-16.5.85-24.28 3.33-.91.29-.52 1.74.4 1.45z" fill="#1d1d1b" data-color="1"></path>
        <path d="M28.53 16.52c2.09 1.22 3.24 4.3 4.15 6.4a73.55 73.55 0 0 1 3.17 8.9A159.49 159.49 0 0 1 40.4 54c.68 4.7 1.2 9.42 1.74 14.13.11.95 1.61 1 1.5 0-1-8.29-1.9-16.58-3.55-24.78a106.88 106.88 0 0 0-5.86-20.62c-1.08-2.54-2.42-6-4.94-7.5a.75.75 0 0 0-.76 1.29z" fill="#1d1d1b" data-color="1"></path>
        <path d="M36.4 67.68a213.06 213.06 0 0 0-4.24-41.15c-.72-3.65-1.56-7.27-2.55-10.85a.75.75 0 0 0-1.45.39 198.85 198.85 0 0 1 6.37 40.65c.22 3.65.35 7.3.36 11a.75.75 0 0 0 1.5 0z" fill="#1d1d1b" data-color="1"></path>
        <path d="M42.86 67.38a42.46 42.46 0 0 1-7.21-.45.74.74 0 0 0-.75.75.77.77 0 0 0 .75.75 42.46 42.46 0 0 0 7.21.45.75.75 0 1 0 0-1.5z" fill="#1d1d1b" data-color="1"></path>
    </g>
</svg>